<svg width="149" height="131" viewBox="0 0 149 131" fill="none" xmlns="http://www.w3.org/2000/svg">
<path d="M56.625 127.625V109.312H61.25V127.625H56.625ZM62.1875 87.125L61.625 84.1875C62.5833 84.1042 63.4583 83.9375 64.25 83.6875C65.0417 83.3958 65.7708 82.9167 66.4375 82.25C67.2292 81.4583 67.625 80.6875 67.625 79.9375C67.6667 79.1875 67.3958 78.5 66.8125 77.875C66.1458 77.1667 65.3333 76.8958 64.375 77.0625C63.4583 77.1875 62.4375 77.4375 61.3125 77.8125C59.8958 78.2708 58.5 78.5833 57.125 78.75C55.7917 78.9167 54.5833 78.4375 53.5 77.3125C52.4583 76.2292 51.875 75.0208 51.75 73.6875C51.625 72.3125 52 71.0208 52.875 69.8125L50.5625 67.4375L52.375 65.625L54.6875 67.9375C55.5208 67.2708 56.3542 66.8542 57.1875 66.6875C58.0625 66.4792 58.9375 66.375 59.8125 66.375L60 69.25C59.2083 69.2917 58.4792 69.3958 57.8125 69.5625C57.1875 69.7292 56.5833 70.1042 56 70.6875C55.375 71.3125 55.0625 71.9792 55.0625 72.6875C55.0625 73.3958 55.3333 74.0417 55.875 74.625C56.4583 75.2083 57.1667 75.4375 58 75.3125C58.875 75.1458 59.8333 74.875 60.875 74.5C62.3333 74 63.75 73.6667 65.125 73.5C66.5417 73.2917 67.875 73.8542 69.125 75.1875C70.2083 76.3125 70.8125 77.5625 70.9375 78.9375C71.1042 80.3125 70.7083 81.6875 69.75 83.0625L72.125 85.375L70.25 87.1875L68 84.9375C66.25 86.3125 64.3125 87.0417 62.1875 87.125ZM66.8125 97C65.6458 93.9167 63.4792 92.375 60.3125 92.375C58.8958 92.375 57.4167 93.0208 55.875 94.3125L40.125 76.125C42.2917 74.9583 43.375 73.4167 43.375 71.5C43.375 69.9167 42.6458 68.6458 41.1875 67.6875C44.3542 65.3542 47.125 63.1042 49.5 60.9375C51.875 58.7292 54.2083 56.2083 56.5 53.375L58.625 55.0625C56.5 57.6458 54.3542 60.0208 52.1875 62.1875C50.0208 64.3542 47.7292 66.3542 45.3125 68.1875C45.8542 69.1875 46.125 70.1875 46.125 71.1875C46.125 72.1042 45.9167 73.0417 45.5 74C45.125 74.9583 44.6458 75.7917 44.0625 76.5L56.3125 90.6875C57.6042 89.9792 58.9375 89.625 60.3125 89.625C61.7708 89.625 63.1667 89.9375 64.5 90.5625C65.875 91.1875 66.9583 92.0417 67.75 93.125C70.2083 91.3333 72.625 89.25 75 86.875C77.4167 84.5 79.7292 81.9583 81.9375 79.25L83.8125 81.125C81.1458 84.4167 78.3542 87.4583 75.4375 90.25C72.5625 93 69.6875 95.25 66.8125 97ZM45.25 44.0625C46.3333 45.0208 47.8125 45.0417 49.6875 44.125C51.5625 43.1667 53.6042 41.4792 55.8125 39.0625C58.0625 36.6042 60.25 33.625 62.375 30.125C61.0833 29 60.1042 28.1042 59.4375 27.4375C58.8125 26.7292 58.0625 25.7292 57.1875 24.4375C55.6875 22.2292 54.6667 20.0417 54.125 17.875C53.5833 15.6667 53.0625 13.625 52.5625 11.75C52.1042 9.875 51.2083 8.35417 49.875 7.1875C48.2083 5.72917 46.4167 5 44.5 5C43.0833 5 41.4375 5.33333 39.5625 6C37.7292 6.625 35.4792 7.60417 32.8125 8.9375C31.3958 9.64583 29.4583 10.8333 27 12.5C24.5833 14.1667 21.7917 15.9375 18.625 17.8125C15.4583 19.6458 12.0625 21.1667 8.4375 22.375C6.89583 22.875 6.125 23.4167 6.125 24C6.125 24.5833 6.52083 25.0417 7.3125 25.375C8.10417 25.7083 8.9375 25.875 9.8125 25.875C11.1458 25.875 12.6667 25.6458 14.375 25.1875C16.0833 24.7292 17.7917 24.1458 19.5 23.4375L20.9375 25.75C20.0208 26.1667 19.0417 26.7917 18 27.625C16.9583 28.4167 16.1875 29.2083 15.6875 30C15.1875 30.7917 15.2917 31.3958 16 31.8125C17.0833 32.3958 18.6875 32.3958 20.8125 31.8125C22.9792 31.1875 25.375 30.1667 28 28.75L29.8125 30.625C28.5208 31.9167 27.7292 33.0833 27.4375 34.125C27.1458 35.125 27.3333 35.7292 28 35.9375C28.5833 36.1042 29.6042 35.8333 31.0625 35.125C32.5208 34.375 34.6042 32.9583 37.3125 30.875L39.125 32.625C37.7083 34.2917 36.8542 35.6875 36.5625 36.8125C36.3125 37.9375 36.5833 38.7292 37.375 39.1875C38 39.5625 39.0208 39.4375 40.4375 38.8125C41.8958 38.1875 43.7708 36.9792 46.0625 35.1875L48.25 37.5625C46.9167 38.8542 45.875 40.0833 45.125 41.25C44.4167 42.4167 44.4583 43.3542 45.25 44.0625ZM103.625 73.8125L101.812 68.3125L65.1875 32.6875L67.6875 29.0625L105.75 65.75L107.875 71.9375L103.625 73.8125ZM42.3125 28.625C41.6875 28.125 41.4792 27.375 41.6875 26.375C41.8958 25.375 42.2917 24.3958 42.875 23.4375L43.375 24.375C42.3333 24.875 41.1667 25.375 39.875 25.875C38.5833 26.3333 37.3542 26.5833 36.1875 26.625C35.0208 26.6667 34.0625 26.3333 33.3125 25.625C32.7292 25 32.5 24.1875 32.625 23.1875C32.75 22.1875 33.0417 21.2292 33.5 20.3125C33.9583 19.3958 34.375 18.7917 34.75 18.5L35.625 18.75C33.625 19.9167 31.7917 20.6875 30.125 21.0625C28.5 21.4375 27.2708 21.3542 26.4375 20.8125C25.8958 20.4375 25.4375 19.6458 25.0625 18.4375C24.7292 17.2292 25.2292 15.75 26.5625 14C28.3125 11.7083 30.2083 9.85417 32.25 8.4375C34.3333 7.02083 36.2708 6.10417 38.0625 5.6875L42.375 5.1875C39.2917 6.35417 36.6875 7.8125 34.5625 9.5625C32.4792 11.2708 31 12.875 30.125 14.375C29.25 15.875 29.125 16.9167 29.75 17.5C30.5 18.2083 31.7708 18.0833 33.5625 17.125C35.3958 16.125 37.1458 14.9792 38.8125 13.6875L40.375 14.9375C39.7083 15.8125 39.0833 16.6875 38.5 17.5625C37.9167 18.4375 37.4583 19.3333 37.125 20.25C36.5833 21.625 36.8333 22.5417 37.875 23C38.9167 23.4583 40.5833 23 42.875 21.625C44.125 20.875 45.3125 20 46.4375 19L47.5 20.125C46.2917 21.5417 45.4167 22.8333 44.875 24C44.375 25.125 44.5208 25.9792 45.3125 26.5625C45.7708 26.8958 46.5208 26.9583 47.5625 26.75C48.6458 26.5417 49.7083 26.2083 50.75 25.75L51.75 26.8125C51 27.4792 50.0208 28.0625 48.8125 28.5625C47.6042 29.0625 46.4167 29.3542 45.25 29.4375C44.0833 29.5208 43.1042 29.25 42.3125 28.625ZM59.5 106.438C64.7083 103.938 69.4375 101.042 73.6875 97.75C77.9792 94.4583 82.2083 90.375 86.375 85.5C90.5833 80.5833 95.1042 74.4792 99.9375 67.1875C108.979 53.6042 120.875 43.5 135.625 36.875L99.5 5.375C94.1667 6.875 89.5208 9 85.5625 11.75C81.6458 14.4583 78.1458 17.6042 75.0625 21.1875C71.9792 24.7292 69.1042 28.5208 66.4375 32.5625C63.7708 36.6042 61.0625 40.6667 58.3125 44.75C55.1458 49.4583 51.8333 53.375 48.375 56.5C44.9583 59.5833 41.375 62.1875 37.625 64.3125C33.9167 66.3958 30.0208 68.3125 25.9375 70.0625L59.5 106.438ZM131.25 113.562L133 113.5C131.958 115.667 130.708 116.979 129.25 117.438C127.792 117.938 126.208 117.396 124.5 115.812C123.667 115.021 123 114 122.5 112.75C122 111.542 121.646 110.167 121.438 108.625C119.188 110.167 117.062 110 115.062 108.125C114.229 107.333 113.625 106.271 113.25 104.938C112.875 103.562 112.688 101.917 112.688 100L114.312 100.812C113.396 101.771 112.417 102.396 111.375 102.688C110.333 102.979 109.333 102.854 108.375 102.312C106.083 101.021 104.792 98.75 104.5 95.5L106.438 95.9375C104.104 98.6042 101.812 99.2083 99.5625 97.75C98.3542 96.9583 97.4375 95.7917 96.8125 94.25C96.1875 92.6667 95.875 90.8542 95.875 88.8125C95.875 82.3958 97.2917 77.4583 100.125 74C102.958 70.5417 107.333 68.5833 113.25 68.125C115.375 67.9583 117.146 67.7083 118.562 67.375C119.979 67 121.312 66.6667 122.562 66.375C123.854 66.0417 125.312 65.875 126.938 65.875C127.729 65.875 128.583 65.9375 129.5 66.0625C130.417 66.1458 131.438 66.2917 132.562 66.5C135.854 67.125 138.333 68.8333 140 71.625C141.708 74.4167 142.562 78.0417 142.562 82.5C142.562 83.125 142.521 84 142.438 85.125C142.354 86.25 142.312 87.1667 142.312 87.875C142.312 90.625 142.812 94.3542 143.812 99.0625C144.812 103.729 146 108.438 147.375 113.188C148.208 115.979 147.875 118.25 146.375 120C144.917 121.792 143.083 122.688 140.875 122.688C138.5 122.688 136.542 121.792 135 120C133.458 118.25 132.208 116.104 131.25 113.562ZM134.312 95.875C132.646 95.875 131.312 94.9375 130.312 93.0625C129.312 91.1458 128.771 89.2083 128.688 87.25L129.75 87.125C129.542 88.3333 129.062 89.5833 128.312 90.875C127.604 92.125 126.396 92.75 124.688 92.75C123.354 92.75 122.375 92.2708 121.75 91.3125C121.167 90.3125 120.812 89.1458 120.688 87.8125C120.562 86.4792 120.542 85.3333 120.625 84.375L120.938 83.75C121.396 84.6667 121.104 85.6042 120.062 86.5625C119.062 87.4792 117.812 87.6042 116.312 86.9375C115.146 86.3958 114.417 85.3958 114.125 83.9375C113.833 82.4375 113.854 80.875 114.188 79.25C114.521 77.5833 114.979 76.2708 115.562 75.3125L117.188 76.25C116.729 77.75 116.458 79.2083 116.375 80.625C116.292 82.0417 116.667 83.0417 117.5 83.625C118.333 84.1667 119.146 84.0625 119.938 83.3125C120.771 82.5625 121.25 81.2292 121.375 79.3125L123.125 79.9375C123.042 80.6042 122.979 81.25 122.938 81.875C122.896 82.5 122.896 83.125 122.938 83.75C123.104 86.625 123.667 88.1667 124.625 88.375C125.583 88.5833 126.458 88.1042 127.25 86.9375C127.708 86.2708 128.062 85.5833 128.312 84.875C128.604 84.1667 128.896 83.4583 129.188 82.75L131.062 83.3125C131.021 84.3125 131.083 85.4792 131.25 86.8125C131.417 88.1458 131.729 89.3125 132.188 90.3125C132.688 91.3125 133.354 91.8125 134.188 91.8125C135.354 91.8125 136.208 90.9792 136.75 89.3125C137.333 87.6458 137.625 85.6667 137.625 83.375C137.625 80.4167 137.292 77.7708 136.625 75.4375C136 73.1042 134.521 71.6667 132.188 71.125C130.396 70.7083 128.708 70.5 127.125 70.5C124.583 70.5 122.312 70.8333 120.312 71.5C118.354 72.1667 116.125 72.5833 113.625 72.75C108.583 73.0417 105.125 74.5208 103.25 77.1875C101.375 79.8125 100.438 83.875 100.438 89.375C100.438 91.75 100.896 93.2292 101.812 93.8125C102.938 94.5208 103.917 94.25 104.75 93C105.625 91.7083 106.521 89.3958 107.438 86.0625L109.75 87.0625C109.208 90.5625 108.958 93.1458 109 94.8125C109.042 96.4792 109.5 97.6042 110.375 98.1875C111.333 98.8125 112.146 98.5208 112.812 97.3125C113.521 96.1042 114.188 94.3958 114.812 92.1875L117.812 93.625C117.188 96.2917 116.896 98.6875 116.938 100.812C117.021 102.896 117.458 104.188 118.25 104.688C118.958 105.104 119.708 104.938 120.5 104.188C121.292 103.396 122.021 102.083 122.688 100.25L126.188 101.312C125.771 103.854 125.667 106.104 125.875 108.062C126.083 110.021 126.479 111.292 127.062 111.875C128.271 113 129.167 112.958 129.75 111.75C130.375 110.542 130.833 108.5 131.125 105.625L134.188 105.312C134.354 107.312 134.708 109.312 135.25 111.312C135.792 113.354 136.562 115.042 137.562 116.375C138.562 117.75 139.792 118.438 141.25 118.438C142.042 118.438 142.625 118.083 143 117.375C143.375 116.667 143.333 115.604 142.875 114.188C141.708 110.354 140.667 106.354 139.75 102.188C138.833 97.9792 138.208 94.3125 137.875 91.1875L139.125 91.625C138.833 93.125 138.188 94.2083 137.188 94.875C136.188 95.5417 135.229 95.875 134.312 95.875ZM98.25 62L96.25 60.3125C100.5 54.6042 104.125 50.2708 107.125 47.3125C110.125 44.3542 112.75 42.1042 115 40.5625C114.125 39.3542 113.688 37.9792 113.688 36.4375C113.688 35.1042 114 33.7917 114.625 32.5L101.25 19.25C99.875 19.75 98.6042 20 97.4375 20C94.5625 20 92.2083 19.0208 90.375 17.0625C87.0833 19.1875 83.9167 21.9375 80.875 25.3125C77.875 28.6875 74.9583 32.375 72.125 36.375L70.125 34.375C73.0833 30.2917 76.3125 26.3125 79.8125 22.4375C83.3542 18.5625 87.1458 15.5833 91.1875 13.5C91.7292 14.6667 92.5625 15.5833 93.6875 16.25C94.8125 16.9167 96.0625 17.25 97.4375 17.25C99.1875 17.25 100.604 16.7917 101.688 15.875L118.125 32.125C117.083 33.2083 116.562 34.5625 116.562 36.1875C116.562 38.1875 117.354 39.8542 118.938 41.1875C117.312 42.1458 115.542 43.3958 113.625 44.9375C111.75 46.4792 109.562 48.6042 107.062 51.3125C104.562 53.9792 101.625 57.5417 98.25 62ZM0.75 24.1875C0.75 22.9792 1.29167 21.8125 2.375 20.6875C3.45833 19.5625 5.02083 18.6667 7.0625 18C10.1458 16.9583 13.2292 15.5625 16.3125 13.8125C19.3958 12.0208 22.2083 10.2708 24.75 8.5625C27.3333 6.85417 29.3542 5.625 30.8125 4.875C36.5208 1.875 41.0833 0.375 44.5 0.375C47.5 0.375 50.3125 1.5 52.9375 3.75C54.4792 5.04167 55.5833 6.64583 56.25 8.5625C56.9583 10.4375 57.5417 12.2917 58 14.125C58.5417 16.125 59.0417 17.7917 59.5 19.125C60 20.4167 60.6667 21.625 61.5 22.75C62.3333 23.8333 63.5208 25.0833 65.0625 26.5C67.8542 22.5833 70.8958 18.8958 74.1875 15.4375C77.5208 11.9375 81.3333 8.875 85.625 6.25C89.9583 3.58333 94.9792 1.58333 100.688 0.25L142.188 36.625V57.75C137.521 59.0417 133.354 60.6667 129.688 62.625C126.062 64.5833 122.688 67.0625 119.562 70.0625L113.188 70.125C119.896 62.75 128.021 57.4792 137.562 54.3125V41.0625C123.604 47.2708 112.312 56.8125 103.688 69.6875C98.3958 77.6042 93.4375 84.2083 88.8125 89.5C84.2292 94.7917 79.5208 99.2083 74.6875 102.75C69.8542 106.292 64.4167 109.375 58.375 112L24.3125 75.0625V86.8125L59.625 125.125C65.25 123.5 70.2292 121.104 74.5625 117.938C78.8958 114.771 82.875 111.042 86.5 106.75C90.125 102.417 93.6458 97.75 97.0625 92.75L99.9375 96.75C96.1042 102.25 92.1458 107.25 88.0625 111.75C84.0208 116.292 79.5833 120.146 74.75 123.312C69.9167 126.479 64.3958 128.792 58.1875 130.25L19.6875 88.6875V67.6875C24.8125 65.5625 29.1875 63.5625 32.8125 61.6875C36.4792 59.7708 39.6667 57.7708 42.375 55.6875C45.125 53.5625 47.6458 51.1458 49.9375 48.4375C48.7708 48.8542 47.625 49.0625 46.5 49.0625C45.4167 49.0625 44.3958 48.8333 43.4375 48.375C42.5208 47.9167 41.8542 47.2917 41.4375 46.5C41.0208 45.6667 40.875 44.6667 41 43.5C38.75 44.25 36.75 44.1042 35 43.0625C34.2917 42.6042 33.75 42.0625 33.375 41.4375C33.0417 40.8125 32.8333 40.1042 32.75 39.3125C30.2917 40.5208 28.2083 40.8542 26.5 40.3125C23.9583 39.5208 22.6875 37.9375 22.6875 35.5625C21.2708 36.1042 19.9167 36.4583 18.625 36.625C17.3333 36.75 16.125 36.6667 15 36.375C13.0417 35.875 11.7917 35.0417 11.25 33.875C10.75 32.7083 10.8333 31.375 11.5 29.875C9.08333 30.125 6.9375 29.875 5.0625 29.125C3.64583 28.5417 2.5625 27.8125 1.8125 26.9375C1.10417 26.0625 0.75 25.1458 0.75 24.1875ZM92.75 103.688L87.125 87.5L51.5625 51.125L54.6875 47.625L91.125 85L95.8125 98.625L92.75 103.688Z" fill="white"/>
</svg>
